<svg xmlns="http://www.w3.org/2000/svg" viewBox="0 0 512 512" role="img" aria-label="BSM Studio">
  <defs>
    <linearGradient id="bg" x1="80" y1="56" x2="440" y2="456" gradientUnits="userSpaceOnUse">
      <stop stop-color="#2bb7ff"/>
      <stop offset="0.52" stop-color="#4f8dff"/>
      <stop offset="1" stop-color="#6d65ff"/>
    </linearGradient>
    <linearGradient id="shine" x1="84" y1="40" x2="420" y2="442" gradientUnits="userSpaceOnUse">
      <stop stop-color="#ffffff" stop-opacity="0.42"/>
      <stop offset="1" stop-color="#ffffff" stop-opacity="0"/>
    </linearGradient>
  </defs>
  <rect width="512" height="512" rx="112" fill="#02040a"/>
  <rect x="42" y="42" width="428" height="428" rx="96" fill="url(#bg)"/>
  <rect x="42" y="42" width="428" height="428" rx="96" fill="url(#shine)"/>
  <path fill="#fff" d="M172 152h98c50 0 78 24 78 64 0 22-10 39-30 51 28 11 43 33 43 64 0 45-34 73-86 73H172V152Zm91 101c26 0 41-11 41-31 0-19-14-30-40-30h-45v61h44Zm8 111c28 0 45-13 45-35 0-23-17-35-47-35h-50v70h52Z"/>
</svg>
