<svg width="792" height="140" viewBox="0 0 792 140" fill="none" xmlns="http://www.w3.org/2000/svg">
<path d="M108.324 20.7312L76.3805 2.31435C70.9912 -0.771451 64.2792 -0.771451 58.9389 2.31435L26.9953 20.7802C21.606 23.866 18.2745 29.6947 18.2745 35.9153V46.5442L8.7208 52.0791C3.33154 55.2139 0 60.9936 0 67.2142V104.097C0 110.317 3.33154 116.097 8.7208 119.232L40.6644 137.649C43.359 139.216 46.3966 140 49.3852 140C52.3738 140 55.4114 139.216 58.106 137.649L90.0496 119.232C95.4389 116.097 98.7704 110.317 98.7704 104.097V93.468L108.324 87.9332C113.713 84.8474 117.045 79.0186 117.045 72.798V35.9153C117.045 29.6947 113.713 23.866 108.324 20.7802V20.7312ZM93.5281 103.999C93.5281 108.358 91.1765 112.424 87.404 114.579L55.4604 132.996C51.6879 135.151 46.9845 135.151 43.2121 132.996L11.2685 114.579C7.49597 112.375 5.14429 108.309 5.14429 103.999V67.1162C5.14429 62.7569 7.49597 58.6915 11.2685 56.5363L18.1765 52.5199V72.7001C18.1765 78.9207 21.508 84.7494 26.8973 87.8352L58.8409 106.301C61.5355 107.868 64.5731 108.652 67.5617 108.652C70.5503 108.652 73.6369 107.868 76.2825 106.301L93.4302 96.4069V103.999H93.5281ZM111.852 72.7491C111.852 77.1084 109.5 81.1738 105.727 83.329L98.8194 87.3454V67.1652C98.8194 60.9446 95.4879 55.1649 90.0986 52.0301L58.155 33.6132C52.7657 30.4784 46.0537 30.4784 40.6644 33.6132L23.5168 43.5074V35.9153C23.5168 31.556 25.8684 27.4906 29.6409 25.3354L61.5845 6.91857C63.4953 5.84099 65.602 5.3022 67.7087 5.3022C69.8154 5.3022 71.9221 5.84099 73.8328 6.91857L105.776 25.3354C109.549 27.4906 111.901 31.556 111.901 35.9153V72.798L111.852 72.7491Z" fill="#2F2F2F"/>
<path d="M93.3815 67.3116V82.2998C93.3815 87.1979 90.7358 91.7531 86.5224 94.2022L73.8822 101.5C69.6197 103.949 64.3775 103.949 60.115 101.5L30.5231 84.406C26.2607 81.9569 23.6641 77.4017 23.6641 72.5036V57.5154C23.6641 52.6173 26.3097 48.062 30.5231 45.613L43.1634 38.3148C47.4258 35.8658 52.6681 35.8658 56.9305 38.3148L86.5224 55.4092C90.7848 57.8582 93.3815 62.4135 93.3815 67.3116Z" fill="#F72E00"/>
<path d="M161.042 55.4091C164.03 53.8417 167.46 53.0091 171.281 53.0091C175.886 53.0091 180.002 54.1846 183.725 56.4867C187.449 58.7888 190.388 62.1195 192.544 66.4298C194.7 70.7402 195.778 75.7852 195.778 81.467C195.778 87.1488 194.7 92.1939 192.544 96.5532C190.388 100.912 187.449 104.243 183.725 106.594C180.002 108.945 175.837 110.121 171.281 110.121C167.362 110.121 163.932 109.337 161.042 107.77C158.102 106.202 155.848 104.145 154.182 101.549V109.337H137.133V35.7188H154.182V61.7277C155.799 59.1317 158.053 57.0255 161.042 55.4581V55.4091ZM174.956 71.5239C172.604 69.1238 169.713 67.8993 166.235 67.8993C162.756 67.8993 159.964 69.1238 157.612 71.5729C155.26 74.0219 154.084 77.4016 154.084 81.614C154.084 85.8263 155.26 89.206 157.612 91.6551C159.964 94.1041 162.854 95.3287 166.235 95.3287C169.615 95.3287 172.506 94.1041 174.907 91.6061C177.307 89.1081 178.483 85.7284 178.483 81.516C178.483 77.3036 177.307 73.9239 174.956 71.5239Z" fill="#2F2F2F"/>
<path d="M206.017 45.418C204.107 43.6547 203.176 41.4995 203.176 38.9035C203.176 36.3075 204.107 34.0544 206.017 32.2911C207.928 30.5278 210.329 29.6461 213.317 29.6461C216.306 29.6461 218.658 30.5278 220.519 32.2911C222.43 34.0544 223.361 36.2586 223.361 38.9035C223.361 41.5485 222.43 43.6547 220.519 45.418C218.609 47.1813 216.208 48.063 213.317 48.063C210.427 48.063 207.879 47.1813 206.017 45.418ZM221.842 53.8427V109.436H204.793V53.8427H221.842Z" fill="#2F2F2F"/>
<path d="M250.111 95.3781H274.216V109.436H231.102V95.8679L254.226 67.8997H231.298V53.8422H273.726V67.4099L250.111 95.3781Z" fill="#2F2F2F"/>
<path d="M292.295 66.5292C294.696 62.2189 297.929 58.8882 302.045 56.4881C306.16 54.088 310.766 52.8635 315.812 52.8635C321.985 52.8635 327.276 54.333 331.686 57.2718C336.095 60.2107 339.329 64.3251 341.338 69.664H334.821C333.254 65.8925 330.804 63.0026 327.57 60.8474C324.337 58.7412 320.417 57.6637 315.812 57.6637C311.746 57.6637 308.071 58.5943 304.838 60.5046C301.604 62.4148 299.056 65.1578 297.195 68.6844C295.333 72.26 294.402 76.3744 294.402 81.0766C294.402 85.7788 295.333 89.8932 297.195 93.4198C299.056 96.9464 301.604 99.6894 304.838 101.6C308.071 103.51 311.746 104.441 315.812 104.441C320.417 104.441 324.337 103.412 327.57 101.306C330.804 99.1996 333.254 96.3097 334.821 92.6361H341.338C339.329 97.9261 336.095 101.991 331.686 104.93C327.227 107.82 321.985 109.29 315.812 109.29C310.717 109.29 306.16 108.114 302.045 105.665C297.929 103.265 294.696 99.9343 292.295 95.624C289.895 91.3626 288.719 86.4645 288.719 81.0276C288.719 75.5907 289.895 70.6926 292.295 66.3823V66.5292Z" fill="#2F2F2F"/>
<path d="M372.79 105.812C368.625 103.412 365.343 100.032 362.942 95.7709C360.541 91.4606 359.316 86.6114 359.316 81.1746C359.316 75.7377 360.541 70.8396 362.942 66.5292C365.343 62.2189 368.625 58.8882 372.79 56.4881C376.954 54.088 381.608 52.8635 386.753 52.8635C391.897 52.8635 396.6 54.0391 400.765 56.4881C404.929 58.8882 408.212 62.2679 410.612 66.5292C413.013 70.8396 414.189 75.6887 414.189 81.1746C414.189 86.6604 413.013 91.5095 410.612 95.7709C408.212 100.081 404.978 103.412 400.765 105.812C396.551 108.212 391.897 109.437 386.753 109.437C381.608 109.437 376.954 108.212 372.79 105.812ZM397.825 101.747C401.108 99.8363 403.704 97.0934 405.615 93.5668C407.526 89.9911 408.457 85.8767 408.457 81.1746C408.457 76.4724 407.526 72.358 405.615 68.8313C403.704 65.3047 401.108 62.5618 397.825 60.6515C394.543 58.7412 390.868 57.8106 386.753 57.8106C382.637 57.8106 378.914 58.7412 375.68 60.6515C372.398 62.5618 369.801 65.2557 367.89 68.8313C365.979 72.358 365.049 76.4724 365.049 81.1746C365.049 85.8767 365.979 89.9911 367.89 93.5668C369.801 97.1424 372.398 99.8853 375.68 101.747C378.963 103.657 382.637 104.587 386.753 104.587C390.868 104.587 394.592 103.657 397.825 101.747Z" fill="#2F2F2F"/>
<path d="M487.975 54.2351V108.898H482.439V65.2558L462.94 108.898H458.922L439.423 65.4028V108.898H433.887V54.2351H439.766L460.931 101.6L482.096 54.2351H488.024H487.975Z" fill="#2F2F2F"/>
<path d="M564.21 54.2351V108.898H558.673V65.2558L539.174 108.898H535.157L515.657 65.4028V108.898H510.121V54.2351H516L537.165 101.6L558.33 54.2351H564.259H564.21Z" fill="#2F2F2F"/>
<path d="M591.841 58.0076V78.6776H612.859V83.2818H591.841V104.295H615.211V108.899H586.305V53.4524H615.211V58.0566H591.841V58.0076Z" fill="#2F2F2F"/>
<path d="M665.181 108.897L651.463 85.7781H641.224V108.897H635.688V53.4996H652.345C658.518 53.4996 663.222 54.9691 666.406 57.9569C669.591 60.8958 671.208 64.8142 671.208 69.6144C671.208 73.6308 670.081 77.0595 667.778 79.8514C665.475 82.6923 662.095 84.5046 657.587 85.3373L671.845 108.848H665.181V108.897ZM641.224 81.2229H652.394C656.706 81.2229 659.988 80.1453 662.193 78.0391C664.398 75.9329 665.475 73.092 665.475 69.5654C665.475 66.0388 664.398 63.0999 662.291 61.1407C660.184 59.1814 656.853 58.1528 652.296 58.1528H641.224V81.2229Z" fill="#2F2F2F"/>
<path d="M692.717 66.5292C695.118 62.2189 698.351 58.8882 702.467 56.4881C706.582 54.088 711.188 52.8635 716.234 52.8635C722.407 52.8635 727.698 54.333 732.108 57.2718C736.517 60.2107 739.751 64.3251 741.759 69.664H735.243C733.676 65.8925 731.226 63.0026 727.992 60.8474C724.759 58.7412 720.839 57.6637 716.234 57.6637C712.167 57.6637 708.493 58.5943 705.259 60.5046C702.026 62.4148 699.478 65.1578 697.616 68.6844C695.755 72.26 694.824 76.3744 694.824 81.0766C694.824 85.7788 695.755 89.8932 697.616 93.4198C699.478 96.9464 702.026 99.6894 705.259 101.6C708.493 103.51 712.167 104.441 716.234 104.441C720.839 104.441 724.759 103.412 727.992 101.306C731.226 99.1996 733.676 96.3097 735.243 92.6361H741.759C739.751 97.9261 736.517 101.991 732.108 104.93C727.649 107.82 722.407 109.29 716.234 109.29C711.139 109.29 706.582 108.114 702.467 105.665C698.351 103.265 695.118 99.9343 692.717 95.624C690.316 91.3626 689.141 86.4645 689.141 81.0276C689.141 75.5907 690.316 70.6926 692.717 66.3823V66.5292Z" fill="#2F2F2F"/>
<path d="M767.872 58.0076V78.6776H788.89V83.2818H767.872V104.295H791.242V108.899H762.336V53.4524H791.242V58.0566H767.872V58.0076Z" fill="#2F2F2F"/>
</svg>
