<svg width="1600" height="1000" viewBox="0 0 1600 1000" fill="none" xmlns="http://www.w3.org/2000/svg">
  <rect width="1600" height="1000" rx="64" fill="#09111F"/>
  <rect x="64" y="64" width="1472" height="872" rx="44" fill="url(#paint0_linear)"/>
  <rect x="124" y="170" width="520" height="216" rx="36" fill="#0F1B31"/>
  <rect x="156" y="210" width="156" height="18" rx="9" fill="#98B6FF"/>
  <rect x="156" y="256" width="340" height="90" rx="24" fill="#F4F8FF"/>
  <rect x="696" y="170" width="780" height="520" rx="36" fill="#0D182B"/>
  <rect x="754" y="238" width="276" height="300" rx="24" fill="url(#paint1_linear)"/>
  <rect x="1074" y="238" width="332" height="128" rx="24" fill="#12203A"/>
  <rect x="1074" y="392" width="332" height="128" rx="24" fill="#12203A"/>
  <rect x="1074" y="546" width="332" height="84" rx="24" fill="#12203A"/>
  <circle cx="1360" cy="218" r="118" fill="url(#paint2_radial)"/>
  <defs>
    <linearGradient id="paint0_linear" x1="114" y1="92" x2="1424" y2="868" gradientUnits="userSpaceOnUse">
      <stop stop-color="#101B31"/>
      <stop offset="1" stop-color="#0A0F1B"/>
    </linearGradient>
    <linearGradient id="paint1_linear" x1="782" y1="270" x2="986" y2="510" gradientUnits="userSpaceOnUse">
      <stop stop-color="#82A4FF"/>
      <stop offset="1" stop-color="#57F0DD"/>
    </linearGradient>
    <radialGradient id="paint2_radial" cx="0" cy="0" r="1" gradientUnits="userSpaceOnUse" gradientTransform="translate(1360 218) rotate(90) scale(118)">
      <stop stop-color="#57F0DD" stop-opacity="0.68"/>
      <stop offset="1" stop-color="#57F0DD" stop-opacity="0"/>
    </radialGradient>
  </defs>
</svg>
