<svg width="1200" height="1400" viewBox="0 0 1200 1400" fill="none" xmlns="http://www.w3.org/2000/svg">
  <rect width="1200" height="1400" rx="96" fill="#0B1020"/>
  <rect x="40" y="40" width="1120" height="1320" rx="72" fill="url(#paint0_linear)"/>
  <circle cx="600" cy="510" r="208" fill="url(#paint1_radial)"/>
  <path d="M348 1116C348 952.02 480.92 819 644.5 819H659.5C823.08 819 956 952.02 956 1116V1160H348V1116Z" fill="url(#paint2_linear)"/>
  <circle cx="600" cy="520" r="152" fill="#1A2440"/>
  <path d="M486 540C486 470.412 542.412 414 612 414H588C657.588 414 714 470.412 714 540V600C714 669.588 657.588 726 588 726H612C542.412 726 486 669.588 486 600V540Z" fill="#22305A"/>
  <defs>
    <linearGradient id="paint0_linear" x1="106" y1="80" x2="1014" y2="1308" gradientUnits="userSpaceOnUse">
      <stop stop-color="#121933"/>
      <stop offset="1" stop-color="#0A0F1D"/>
    </linearGradient>
    <radialGradient id="paint1_radial" cx="0" cy="0" r="1" gradientUnits="userSpaceOnUse" gradientTransform="translate(600 510) rotate(90) scale(208)">
      <stop stop-color="#57F0DD" stop-opacity="0.56"/>
      <stop offset="1" stop-color="#5F52FF" stop-opacity="0"/>
    </radialGradient>
    <linearGradient id="paint2_linear" x1="412" y1="879" x2="887" y2="1196" gradientUnits="userSpaceOnUse">
      <stop stop-color="#2A3B73"/>
      <stop offset="1" stop-color="#141B32"/>
    </linearGradient>
  </defs>
</svg>
